{"accessors" : [{"bufferView" : 0, "byteOffset" : 0, "componentType" : 5123, "count" : 11616, "type" : "SCALAR", "max" : [11615], "min" : [0]}, {"bufferView" : 1, "byteOffset" : 0, "componentType" : 5126, "count" : 11616, "type" : "VEC3", "max" : [0.04116759076714516, 0.5484328866004944, 1.8108320236206055], "min" : [-0.09637943655252457, 0.3686980903148651, 0.7419840097427368], "name" : "POSITION"}, {"bufferView" : 1, "byteOffset" : 12, "componentType" : 5126, "count" : 11616, "type" : "VEC3", "max" : [0.9927811622619629, 0.8162081837654114, 0.9997255206108093], "min" : [-0.7782554626464844, -0.9987362027168274, -0.9987853169441223], "name" : "NORMAL"}, {"bufferView" : 0, "byteOffset" : 23232, "componentType" : 5123, "count" : 11616, "type" : "SCALAR", "max" : [11615], "min" : [0]}, {"bufferView" : 2, "byteOffset" : 0, "componentType" : 5126, "count" : 11616, "type" : "VEC3", "max" : [0.5473647117614746, 0.49519339203834534, 1.8108320236206055], "min" : [0.36762988567352295, 0.3576464056968689, 0.7419840097427368], "name" : "POSITION"}, {"bufferView" : 2, "byteOffset" : 12, "componentType" : 5126, "count" : 11616, "type" : "VEC3", "max" : [0.8162031769752502, 0.7783595323562622, 0.9997255206108093], "min" : [-0.9987362027168274, -0.992780864238739, -0.9987851977348328], "name" : "NORMAL"}, {"bufferView" : 0, "byteOffset" : 46464, "componentType" : 5123, "count" : 11616, "type" : "SCALAR", "max" : [11615], "min" : [0]}, {"bufferView" : 3, "byteOffset" : 0, "componentType" : 5126, "count" : 11616, "type" : "VEC3", "max" : [0.03011585958302021, 0.04223582148551941, 1.8108320236206055], "min" : [-0.14961889386177063, -0.09531120955944061, 0.7419840097427368], "name" : "POSITION"}, {"bufferView" : 3, "byteOffset" : 12, "componentType" : 5126, "count" : 11616, "type" : "VEC3", "max" : [0.9987362027168274, 0.9927811622619629, 0.9997254014015198], "min" : [-0.8162027597427368, -0.7781926393508911, -0.9987853169441223], "name" : "NORMAL"}, {"bufferView" : 0, "byteOffset" : 69696, "componentType" : 5123, "count" : 11616, "type" : "SCALAR", "max" : [11615], "min" : [0]}, {"bufferView" : 4, "byteOffset" : 0, "componentType" : 5126, "count" : 11616, "type" : "VEC3", "max" : [0.4941251873970032, 0.031184090301394463, 1.8108320236206055], "min" : [0.35657820105552673, -0.14855070412158966, 0.7419840097427368], "name" : "POSITION"}, {"bufferView" : 4, "byteOffset" : 12, "componentType" : 5126, "count" : 11616, "type" : "VEC3", "max" : [0.7783096432685852, 0.9987362027168274, 0.9997255206108093], "min" : [-0.992782473564148, -0.8162033557891846, -0.9987853169441223], "name" : "NORMAL"}, {"bufferView" : 0, "byteOffset" : 92928, "componentType" : 5123, "count" : 1164, "type" : "SCALAR", "max" : [1163], "min" : [0]}, {"bufferView" : 5, "byteOffset" : 0, "componentType" : 5126, "count" : 1164, "type" : "VEC3", "max" : [0.4000000059604645, 0.4000000059604645, 0.800000011920929], "min" : [0, 0, -0.05000000074505806], "name" : "POSITION"}, {"bufferView" : 5, "byteOffset" : 12, "componentType" : 5126, "count" : 1164, "type" : "VEC3", "max" : [1.0000044107437134, 1.0000044107437134, 1.0000044107437134], "min" : [-1.0000044107437134, -1.0000044107437134, -1.0000044107437134], "name" : "NORMAL"}, {"bufferView" : 0, "byteOffset" : 95256, "componentType" : 5123, "count" : 2328, "type" : "SCALAR", "max" : [2327], "min" : [0]}, {"bufferView" : 6, "byteOffset" : 0, "componentType" : 5126, "count" : 2328, "type" : "VEC3", "max" : [0, 0.37838080525398254, 0.37481769919395447], "min" : [-0.36204710602760315, -0.04923862963914871, 0.3251822888851166], "name" : "POSITION"}, {"bufferView" : 6, "byteOffset" : 12, "componentType" : 5126, "count" : 2328, "type" : "VEC3", "max" : [1.0000044107437134, 1.0000044107437134, 1.0000044107437134], "min" : [-1.0000044107437134, -1.0000044107437134, -1.0000044107437134], "name" : "NORMAL"}, {"bufferView" : 0, "byteOffset" : 99912, "componentType" : 5123, "count" : 2328, "type" : "SCALAR", "max" : [2327], "min" : [0]}, {"bufferView" : 7, "byteOffset" : 0, "componentType" : 5126, "count" : 2328, "type" : "VEC3", "max" : [0.7597928047180176, 0.37838080525398254, 0.37481769919395447], "min" : [0.3977457880973816, -0.04923862963914871, 0.3251822888851166], "name" : "POSITION"}, {"bufferView" : 7, "byteOffset" : 12, "componentType" : 5126, "count" : 2328, "type" : "VEC3", "max" : [1.0000044107437134, 1.0000044107437134, 1.0000044107437134], "min" : [-1.0000044107437134, -1.0000044107437134, -1.0000044107437134], "name" : "NORMAL"}], "asset" : {"generator" : "Aspose.3D 21.11", "version" : "2.0"}, "buffers" : [{"uri" : "data:application/octet-stream;base64,", "byteLength" : 1359416}], "bufferViews" : [{"buffer" : 0, "byteOffset" : 0, "byteLength" : 104568, "target" : 34963}, {"buffer" : 0, "byteOffset" : 104572, "byteLength" : 278784, "byteStride" : 24, "target" : 34962}, {"buffer" : 0, "byteOffset" : 383360, "byteLength" : 278784, "byteStride" : 24, "target" : 34962}, {"buffer" : 0, "byteOffset" : 662148, "byteLength" : 278784, "byteStride" : 24, "target" : 34962}, {"buffer" : 0, "byteOffset" : 940936, "byteLength" : 278784, "byteStride" : 24, "target" : 34962}, {"buffer" : 0, "byteOffset" : 1219724, "byteLength" : 27936, "byteStride" : 24, "target" : 34962}, {"buffer" : 0, "byteOffset" : 1247664, "byteLength" : 55872, "byteStride" : 24, "target" : 34962}, {"buffer" : 0, "byteOffset" : 1303540, "byteLength" : 55872, "byteStride" : 24, "target" : 34962}], "materials" : [{"name" : "", "pbrMetallicRoughness" : {"baseColorFactor" : [0.8235294222831726, 0.8235294222831726, 1, 1], "metallicFactor" : 0, "roughnessFactor" : 0}, "emissiveFactor" : [0, 0, 0], "alphaMode" : "OPAQUE", "doubleSided" : false}, {"name" : "", "pbrMetallicRoughness" : {"baseColorFactor" : [0.8235294222831726, 0.8235294222831726, 1, 1], "metallicFactor" : 0, "roughnessFactor" : 0}, "emissiveFactor" : [0, 0, 0], "alphaMode" : "OPAQUE", "doubleSided" : false}, {"name" : "", "pbrMetallicRoughness" : {"baseColorFactor" : [0.8235294222831726, 0.8235294222831726, 1, 1], "metallicFactor" : 0, "roughnessFactor" : 0}, "emissiveFactor" : [0, 0, 0], "alphaMode" : "OPAQUE", "doubleSided" : false}, {"name" : "", "pbrMetallicRoughness" : {"baseColorFactor" : [0.8235294222831726, 0.8235294222831726, 1, 1], "metallicFactor" : 0, "roughnessFactor" : 0}, "emissiveFactor" : [0, 0, 0], "alphaMode" : "OPAQUE", "doubleSided" : false}, {"name" : "", "pbrMetallicRoughness" : {"baseColorFactor" : [0.26274511218070984, 0.26274511218070984, 0.26274511218070984, 1], "metallicFactor" : 0, "roughnessFactor" : 0}, "emissiveFactor" : [0, 0, 0], "alphaMode" : "OPAQUE", "doubleSided" : false}, {"name" : "", "pbrMetallicRoughness" : {"baseColorFactor" : [0.5137255191802979, 0.6666666865348816, 0.8392156958580017, 1], "metallicFactor" : 0, "roughnessFactor" : 0}, "emissiveFactor" : [0, 0, 0], "alphaMode" : "OPAQUE", "doubleSided" : false}, {"name" : "", "pbrMetallicRoughness" : {"baseColorFactor" : [0.5137255191802979, 0.6666666865348816, 0.8392156958580017, 1], "metallicFactor" : 0, "roughnessFactor" : 0}, "emissiveFactor" : [0, 0, 0], "alphaMode" : "OPAQUE", "doubleSided" : false}], "meshes" : [{"primitives" : [{"attributes" : {"POSITION" : 1, "NORMAL" : 2}, "indices" : 0, "material" : 0, "mode" : 4}], "name" : ""}, {"primitives" : [{"attributes" : {"POSITION" : 4, "NORMAL" : 5}, "indices" : 3, "material" : 1, "mode" : 4}], "name" : ""}, {"primitives" : [{"attributes" : {"POSITION" : 7, "NORMAL" : 8}, "indices" : 6, "material" : 2, "mode" : 4}], "name" : ""}, {"primitives" : [{"attributes" : {"POSITION" : 10, "NORMAL" : 11}, "indices" : 9, "material" : 3, "mode" : 4}], "name" : ""}, {"primitives" : [{"attributes" : {"POSITION" : 13, "NORMAL" : 14}, "indices" : 12, "material" : 4, "mode" : 4}], "name" : ""}, {"primitives" : [{"attributes" : {"POSITION" : 16, "NORMAL" : 17}, "indices" : 15, "material" : 5, "mode" : 4}], "name" : ""}, {"primitives" : [{"attributes" : {"POSITION" : 19, "NORMAL" : 20}, "indices" : 18, "material" : 6, "mode" : 4}], "name" : ""}], "nodes" : [{"mesh" : 0, "name" : "node0"}, {"mesh" : 1, "name" : "node1"}, {"mesh" : 2, "name" : "node2"}, {"mesh" : 3, "name" : "node3"}, {"mesh" : 4, "name" : "node4"}, {"mesh" : 5, "name" : "node5"}, {"mesh" : 6, "name" : "node6"}], "scene" : 0, "scenes" : [{"nodes" : [0, 1, 2, 3, 4, 5, 6]}]}